# xmcd
# 
# Track frame offsets:
#     150
#     14032
#     28678
#     46587
#     62263
#     77088
#     94242
#     112441
#     129074
#     147286
#     160840
#     178845
#     194394
#     211196
# 
# Disc length: 3021
# 
# Revision: 3
# Processed by: cddbd v1.5.2PL0 Copyright (c) Steve Scherf et al.
# Submitted via: BonkEnc v2.1.0
# 
DISCID=bc0bcb0e
DTITLE=Leandro and Leonardo - Pra Nunca Dizer Adeus
DYEAR=2005
DGENRE=Vocal
TTITLE0=Não Aprendi a Dizer Adeus
TTITLE1=Não Olhe Assim
TTITLE2=Horizonte Azul
TTITLE3=Cerveja
TTITLE4=Mexe, Mexe
TTITLE5=Doce Misterio
TTITLE6=Sonho Por Sonho
TTITLE7=Diz Pra Mim
TTITLE8=Temporal de Amor
TTITLE9=Cade Voce
TTITLE10=Rumo a Goiania
TTITLE11=Mulher Brasileira
TTITLE12=Por Causa Dela
TTITLE13=Pra Nunca Dizer Adeus
EXTD=E.O.Café
EXTT0=
EXTT1=
EXTT2=
EXTT3=
EXTT4=
EXTT5=
EXTT6=
EXTT7=
EXTT8=
EXTT9=
EXTT10=
EXTT11=
EXTT12=
EXTT13=
PLAYORDER=
